<?xml version="1.0" encoding="UTF-8"?>
<svg id="Layer_3" data-name="Layer 3" xmlns="http://www.w3.org/2000/svg" viewBox="0 0 1266.73 250.38">
  <defs>
    <style>
      .cls-1 {
        fill: #fff;
      }

      .cls-2 {
        fill: #675cf5;
      }
    </style>
  </defs>
  <g id="Logo">
    <g id="text">
      <path class="cls-2" d="M355.28,75.61c-5.39,0-9.95-1.86-13.67-5.59-3.73-3.72-5.59-8.2-5.59-13.44s1.86-9.47,5.59-13.2,8.28-5.59,13.67-5.59,10.14,1.87,13.79,5.59c3.64,3.73,5.47,8.13,5.47,13.2,0,5.39-1.82,9.91-5.47,13.55s-8.25,5.47-13.79,5.47Z"/>
      <rect class="cls-1" x="339.35" y="85.83" width="32.1" height="123.65"/>
      <path class="cls-1" d="M390.47,209.49V85.83h31.63v18.07c6.5-13.95,19.1-20.93,37.81-20.93,8.88,0,16.88,2.06,24.02,6.18,7.13,4.12,12.76,9.99,16.88,17.6,4.12,7.61,6.18,16.65,6.18,27.11v75.62h-32.1v-67.77c0-10.78-2.46-18.59-7.37-23.42-4.92-4.83-11.34-7.25-19.26-7.25-6.82,0-12.8,2.42-17.95,7.25-5.15,4.84-7.73,12.64-7.73,23.42v67.77h-32.1Z"/>
      <path class="cls-1" d="M569.53,209.49c-12.21,0-21.56-3.01-28.06-9.04-6.5-6.02-9.75-15.77-9.75-29.25v-58.02h-17.36v-27.35h17.36v-24.97l32.1-3.33v28.3h26.16v27.35h-26.16v56.36c0,7.61,3.33,11.41,9.99,11.41h13.32v28.54h-17.6Z"/>
      <path class="cls-1" d="M600.68,209.49V85.83h31.15v23.54c2.06-8.88,6.26-15.65,12.6-20.33,6.34-4.67,14.9-6.7,25.68-6.06v30.2h-4.52c-9.19,0-16.96,2.94-23.3,8.8-6.34,5.87-9.51,13.95-9.51,24.25v63.25h-32.1Z"/>
      <path class="cls-1" d="M735.98,212.58c-12.68,0-24.02-2.94-34-8.8-9.99-5.86-17.8-13.67-23.42-23.42-5.63-9.75-8.44-20.57-8.44-32.46s2.81-22.75,8.44-32.58c5.62-9.83,13.44-17.68,23.42-23.54,9.99-5.86,21.32-8.8,34-8.8s24.21,2.94,34.12,8.8c9.91,5.87,17.67,13.71,23.3,23.54,5.62,9.83,8.44,20.69,8.44,32.58s-2.82,22.71-8.44,32.46c-5.63,9.75-13.4,17.56-23.3,23.42-9.91,5.86-21.28,8.8-34.12,8.8Zm0-29.25c6.82,0,12.76-1.62,17.84-4.87,5.07-3.25,8.99-7.57,11.77-12.96,2.77-5.39,4.16-11.26,4.16-17.6s-1.39-12.44-4.16-17.84c-2.78-5.39-6.7-9.71-11.77-12.96-5.08-3.25-11.02-4.87-17.84-4.87s-12.76,1.63-17.83,4.87c-5.08,3.25-9,7.57-11.77,12.96-2.78,5.39-4.16,11.34-4.16,17.84s1.39,12.21,4.16,17.6c2.77,5.39,6.7,9.71,11.77,12.96,5.07,3.25,11.02,4.87,17.83,4.87Z"/>
      <path class="cls-1" d="M847.27,209.49l-51.6-123.65h38.05l24.73,70.62c2.22,6.34,3.96,12.92,5.23,19.74,1.27-6.81,3.01-13.39,5.23-19.74l24.73-70.62h37.33l-51.36,123.65h-32.34Z"/>
      <path class="cls-1" d="M988.28,212.58c-12.69,0-23.86-2.94-33.53-8.8-9.67-5.86-17.16-13.67-22.47-23.42-5.31-9.75-7.97-20.57-7.97-32.46s2.77-22.79,8.32-32.7c5.55-9.91,13.12-17.79,22.71-23.66,9.59-5.86,20.57-8.8,32.94-8.8s23.26,2.94,32.7,8.8c9.43,5.87,16.8,13.75,22.12,23.66,5.31,9.91,7.97,20.81,7.97,32.7,0,1.75-.08,3.57-.24,5.47-.16,1.9-.4,3.89-.71,5.94h-92.5c1.74,7.29,5.27,13.24,10.58,17.84,5.31,4.6,12.01,6.89,20.09,6.89,6.97,0,13.04-1.58,18.19-4.75,5.15-3.17,9.16-7.13,12.01-11.89l24.97,18.78c-4.92,7.77-12.29,14.11-22.12,19.02-9.83,4.91-20.85,7.37-33.05,7.37Zm-.48-102.25c-7.61,0-14.11,2.3-19.5,6.9-5.39,4.6-8.96,10.62-10.7,18.07h61.11c-1.75-6.81-5.35-12.68-10.82-17.6-5.47-4.91-12.17-7.37-20.09-7.37Z"/>
      <path class="cls-1" d="M1065.08,209.49V85.83h31.15v23.54c2.06-8.88,6.26-15.65,12.6-20.33,6.34-4.67,14.9-6.7,25.68-6.06v30.2h-4.52c-9.2,0-16.96,2.94-23.3,8.8-6.34,5.87-9.51,13.95-9.51,24.25v63.25h-32.1Z"/>
      <path class="cls-1" d="M1195.63,212.58c-11.26,0-21.52-2.9-30.79-8.68-9.27-5.79-16.64-13.55-22.11-23.31-5.47-9.75-8.2-20.57-8.2-32.46,0-8.88,1.58-17.24,4.75-25.09,3.17-7.85,7.53-14.74,13.08-20.69,5.55-5.95,12.01-10.62,19.38-14.03,7.37-3.41,15.34-5.11,23.9-5.11,10.78,0,19.18,2.02,25.21,6.06,6.02,4.04,10.7,9.39,14.03,16.05v-19.5h31.87v123.65h-31.15v-20.21c-3.33,6.98-8.05,12.6-14.15,16.88-6.11,4.28-14.71,6.42-25.8,6.42Zm5.23-29.01c7.13,0,13.28-1.62,18.43-4.87,5.15-3.25,9.15-7.57,12.01-12.96,2.85-5.39,4.28-11.25,4.28-17.6s-1.43-12.44-4.28-17.84c-2.85-5.39-6.86-9.75-12.01-13.08-5.15-3.33-11.3-4.99-18.43-4.99s-12.8,1.63-17.95,4.87c-5.15,3.25-9.16,7.57-12.01,12.96-2.85,5.39-4.28,11.34-4.28,17.84s1.43,12.01,4.28,17.48,6.86,9.87,12.01,13.2c5.15,3.33,11.14,5,17.95,5Z"/>
    </g>
    <g id="logo_mark" data-name="logo mark">
      <path class="cls-1" d="M0,58.49V240.93c0,5.22,3.85,9.44,8.6,9.44h125.92c7.1,0,11.14-8.93,6.85-15.15L15.45,52.79C10.47,45.57,0,49.44,0,58.49Z"/>
      <path class="cls-2" d="M72.32,97.06s0-66.38,0-90.33c0-2.74-3.3-6.73-5.79-6.73-16.53,0-61.88,0-61.88,0C.91,0-1.36,7.48,.9,10.74L61.67,100.05c2.61,3.79,10.65,1.76,10.65-2.99Z"/>
      <path class="cls-1" d="M251.1,146.69l-9.69,14.04-51.9,75.15-7.39,10.73c-1.25,1.8-2.84,2.93-4.53,3.42-.9,.19-1.84,.29-2.79,.33-2.51,.1-5.09-.11-7.35-1.02s-4.22-2.54-5.59-4.54l-56.96-83.23-1.73-2.55c-.64-.92-1.06-1.91-1.3-2.9-.09-.35-.14-.71-.17-1.08-.03-.4-.03-.81,0-1.23,0-.07,.02-.12,.02-.19,.02-.14,.02-.28,.05-.42,.26-2.24,1.51-4.02,1.51-4.02l14.56-21.1c1.87-2.72,4.96-4.35,8.27-4.35h112.93c11.79,0,18.76,13.25,12.05,22.96Z"/>
    </g>
  </g>
</svg>